<?xml version="1.0" standalone="no"?>
<!DOCTYPE svg PUBLIC "-//W3C//DTD SVG 20010904//EN"
 "http://www.w3.org/TR/2001/REC-SVG-20010904/DTD/svg10.dtd">
<svg version="1.0" xmlns="http://www.w3.org/2000/svg"
 width="976.000000pt" height="976.000000pt" viewBox="0 0 976.000000 976.000000"
 preserveAspectRatio="xMidYMid meet">
<metadata>
Created by potrace 1.14, written by Peter Selinger 2001-2017
</metadata>
<g transform="translate(0.000000,976.000000) scale(0.100000,-0.100000)"
fill="#000000" stroke="none">
<path d="M2470 7378 c-19 -29 -34 -55 -35 -58 0 -3 -8 -16 -17 -30 -9 -14 -22
-37 -29 -52 -7 -16 -16 -28 -21 -28 -4 0 -8 -4 -8 -9 0 -11 -59 -110 -78 -129
-7 -8 -10 -18 -7 -23 4 -5 1 -9 -4 -9 -6 0 -11 -6 -11 -14 0 -8 -4 -16 -8 -18
-5 -1 -33 -45 -63 -96 -30 -52 -59 -101 -64 -110 -20 -33 -70 -117 -80 -134
-5 -9 -30 -50 -55 -90 -25 -40 -50 -82 -56 -93 -6 -11 -30 -51 -53 -90 -23
-38 -46 -77 -50 -85 -121 -204 -288 -476 -293 -478 -5 -2 -8 -8 -8 -14 0 -13
-71 -130 -85 -140 -5 -4 -6 -8 -1 -8 5 0 2 -8 -6 -17 -8 -10 -51 -79 -95 -153
-106 -177 -119 -198 -143 -240 -11 -19 -26 -44 -33 -54 -39 -63 -77 -126 -77
-130 0 -3 -13 -24 -29 -48 -15 -24 -39 -62 -52 -85 -41 -73 -188 -318 -197
-328 -4 -5 -23 -37 -42 -70 -19 -33 -37 -61 -42 -63 -4 -2 -8 -8 -8 -13 0 -13
-102 -183 -112 -187 -4 -2 -8 -12 -8 -23 0 -11 -7 -22 -15 -25 -8 -4 -15 -10
-15 -15 0 -5 -19 -40 -41 -77 -23 -37 -49 -80 -59 -97 -9 -16 -56 -94 -104
-173 -47 -79 -86 -147 -86 -151 0 -4 -9 -16 -20 -26 -11 -10 -20 -22 -20 -27
0 -12 -133 -232 -142 -236 -5 -2 -8 -8 -8 -14 0 -12 -72 -132 -83 -136 -4 -2
-5 -8 -1 -13 5 -9 5004 -13 5004 -4 0 3 -33 61 -74 129 -41 68 -87 145 -102
172 -14 27 -37 63 -50 81 -13 17 -24 35 -24 38 0 4 -20 38 -45 76 -25 38 -45
71 -45 73 0 2 -49 85 -110 186 -60 100 -110 186 -110 191 0 5 -4 9 -10 9 -5 0
-10 4 -10 10 0 5 -15 33 -33 62 -18 29 -41 70 -52 91 -11 20 -23 37 -27 37 -5
0 -8 4 -8 8 0 5 -31 60 -70 123 -38 63 -81 134 -95 159 -52 93 -64 112 -81
131 -9 10 -14 19 -11 19 3 0 -10 24 -29 53 -19 28 -40 64 -47 80 -6 15 -15 27
-19 27 -5 0 -8 4 -8 9 0 5 -18 38 -40 72 -22 35 -43 71 -47 79 -4 8 -18 33
-32 55 -14 22 -31 50 -38 63 -7 12 -19 32 -26 45 -7 12 -24 40 -39 63 -14 23
-35 56 -45 75 -10 19 -31 53 -46 76 -15 24 -27 47 -27 53 0 5 -4 10 -10 10 -5
0 -10 4 -10 8 0 5 -24 48 -52 96 -29 48 -57 94 -63 104 -5 9 -31 52 -57 95
-27 43 -48 81 -48 85 0 5 -5 13 -12 20 -7 7 -26 36 -43 65 -16 30 -66 113
-110 186 -44 73 -88 146 -97 162 -10 16 -27 44 -38 62 -11 17 -30 49 -42 71
-13 21 -27 46 -33 55 -5 9 -34 57 -64 106 -30 50 -60 97 -67 105 -7 8 -13 18
-13 23 0 4 -7 17 -15 30 -49 76 -186 311 -186 319 0 4 -4 8 -9 8 -5 0 -11 6
-13 13 -5 19 -112 197 -119 197 -3 0 -21 -24 -39 -52z"/>
<path d="M4626 6453 c15 -27 32 -57 38 -68 6 -11 14 -22 17 -25 3 -3 23 -34
43 -70 63 -110 84 -145 93 -156 8 -10 27 -42 48 -79 6 -11 23 -39 38 -62 15
-24 27 -44 27 -47 0 -2 18 -33 39 -67 43 -70 167 -276 191 -318 8 -14 37 -62
63 -106 27 -44 52 -87 57 -95 5 -8 58 -97 119 -198 61 -100 111 -187 111 -192
0 -6 4 -10 10 -10 5 0 12 -11 16 -25 3 -14 10 -25 14 -25 5 0 11 -9 15 -19 3
-11 17 -36 31 -57 15 -21 34 -52 43 -68 42 -77 197 -331 203 -334 5 -2 8 -8 8
-13 0 -5 32 -60 70 -123 39 -63 70 -119 70 -125 0 -6 4 -11 10 -11 5 0 12 -11
16 -25 3 -14 9 -25 13 -25 4 0 13 -12 20 -27 7 -16 28 -51 47 -80 19 -28 34
-54 34 -57 0 -3 21 -40 48 -83 56 -92 62 -101 104 -173 17 -30 35 -56 40 -58
4 -2 8 -8 8 -12 0 -5 46 -84 101 -177 56 -92 109 -180 118 -196 9 -15 49 -81
89 -147 39 -66 72 -125 72 -130 0 -6 5 -10 10 -10 6 0 10 -4 10 -8 0 -9 233
-399 250 -419 5 -7 10 -15 10 -18 0 -3 23 -42 50 -86 28 -44 50 -85 50 -90 0
-16 28 -9 34 9 3 9 10 24 16 32 19 29 126 205 133 220 12 24 115 194 127 207
5 7 10 15 10 17 0 3 19 36 42 73 23 38 46 77 52 88 9 16 89 149 223 370 7 11
15 27 19 35 4 8 27 45 51 83 24 37 43 72 43 77 0 6 5 10 10 10 6 0 10 4 10 9
0 7 236 405 311 526 11 17 22 38 25 48 4 9 10 17 14 17 5 0 10 6 12 13 2 9 85
152 138 237 9 15 72 120 117 195 13 22 31 55 40 73 9 17 20 32 25 32 4 0 8 6
8 14 0 8 6 21 13 28 12 14 20 28 59 97 11 20 26 43 34 52 8 9 11 19 7 22 -3 4
-1 7 5 7 7 0 12 7 12 15 0 8 5 15 10 15 6 0 10 4 10 9 0 8 64 119 119 207 61
97 85 139 83 147 -1 4 3 7 8 7 6 0 10 7 10 15 0 8 5 15 10 15 6 0 10 5 10 10
0 6 23 47 50 91 28 44 50 85 50 90 0 5 4 9 9 9 5 0 11 8 15 18 3 9 15 33 27
52 73 122 216 358 224 373 5 9 36 60 68 112 31 52 57 97 57 100 0 3 5 11 11
18 24 28 156 256 151 261 -3 3 -1130 6 -2505 6 l-2499 0 28 -47z"/>
</g>
</svg>
